<mxfile>
    <diagram id="V75hB-kW6oTVuLSoQBS7" name="Page-1">
        <mxGraphModel dx="1728" dy="1554" grid="1" gridSize="10" guides="1" tooltips="1" connect="1" arrows="1" fold="1" page="1" pageScale="1" pageWidth="850" pageHeight="1100" math="0" shadow="0">
            <root>
                <mxCell id="0"/>
                <mxCell id="1" parent="0"/>
                <mxCell id="9" value="Broker1" style="shape=cylinder3;whiteSpace=wrap;html=1;boundedLbl=1;backgroundOutline=1;size=15;fontSize=18;fontStyle=1;fillColor=#dae8fc;strokeColor=#6c8ebf;" parent="1" vertex="1">
                    <mxGeometry x="147.5" y="-70" width="115" height="110" as="geometry"/>
                </mxCell>
                <mxCell id="10" value="Broker2" style="shape=cylinder3;whiteSpace=wrap;html=1;boundedLbl=1;backgroundOutline=1;size=15;fontSize=18;fontStyle=1;fillColor=#dae8fc;strokeColor=#6c8ebf;" parent="1" vertex="1">
                    <mxGeometry x="377.5" y="-70" width="115" height="110" as="geometry"/>
                </mxCell>
                <mxCell id="11" value="Broker3" style="shape=cylinder3;whiteSpace=wrap;html=1;boundedLbl=1;backgroundOutline=1;size=15;fontSize=18;fontStyle=1;fillColor=#dae8fc;strokeColor=#6c8ebf;" parent="1" vertex="1">
                    <mxGeometry x="607.5" y="-70" width="115" height="110" as="geometry"/>
                </mxCell>
                <mxCell id="12" value="" style="rounded=0;whiteSpace=wrap;html=1;fontSize=18;fillColor=#f8cecc;strokeColor=#b85450;" parent="1" vertex="1">
                    <mxGeometry x="85" y="253" width="700" height="185" as="geometry"/>
                </mxCell>
                <mxCell id="8" value="ConsumerFetcherThread" style="rounded=0;whiteSpace=wrap;html=1;fontSize=15;" parent="1" vertex="1">
                    <mxGeometry x="100" y="290" width="190" height="70" as="geometry"/>
                </mxCell>
                <mxCell id="13" value="ConsumerFetcherThread" style="rounded=0;whiteSpace=wrap;html=1;fontSize=15;" parent="1" vertex="1">
                    <mxGeometry x="110" y="300" width="190" height="70" as="geometry"/>
                </mxCell>
                <mxCell id="14" value="ConsumerFetcherThread" style="rounded=0;whiteSpace=wrap;html=1;fontSize=15;" parent="1" vertex="1">
                    <mxGeometry x="330" y="290" width="190" height="70" as="geometry"/>
                </mxCell>
                <mxCell id="15" value="ConsumerFetcherThread" style="rounded=0;whiteSpace=wrap;html=1;fontSize=15;" parent="1" vertex="1">
                    <mxGeometry x="340" y="300" width="190" height="70" as="geometry"/>
                </mxCell>
                <mxCell id="16" value="ConsumerFetcherThread" style="rounded=0;whiteSpace=wrap;html=1;fontSize=15;" parent="1" vertex="1">
                    <mxGeometry x="560" y="290" width="190" height="70" as="geometry"/>
                </mxCell>
                <mxCell id="17" value="ConsumerFetcherThread" style="rounded=0;whiteSpace=wrap;html=1;fontSize=15;" parent="1" vertex="1">
                    <mxGeometry x="570" y="300" width="190" height="70" as="geometry"/>
                </mxCell>
                <mxCell id="18" value="" style="endArrow=none;dashed=1;html=1;fontSize=18;entryX=0.5;entryY=1;entryDx=0;entryDy=0;entryPerimeter=0;exitX=0.5;exitY=0;exitDx=0;exitDy=0;strokeWidth=2;" parent="1" source="13" target="9" edge="1">
                    <mxGeometry width="50" height="50" relative="1" as="geometry">
                        <mxPoint x="380" y="460" as="sourcePoint"/>
                        <mxPoint x="430" y="410" as="targetPoint"/>
                    </mxGeometry>
                </mxCell>
                <mxCell id="21" value="" style="endArrow=none;dashed=1;html=1;strokeWidth=2;fontSize=18;entryX=0.5;entryY=1;entryDx=0;entryDy=0;entryPerimeter=0;" parent="1" source="15" target="10" edge="1">
                    <mxGeometry width="50" height="50" relative="1" as="geometry">
                        <mxPoint x="380" y="460" as="sourcePoint"/>
                        <mxPoint x="430" y="410" as="targetPoint"/>
                    </mxGeometry>
                </mxCell>
                <mxCell id="22" value="" style="endArrow=none;dashed=1;html=1;strokeWidth=2;fontSize=18;entryX=0.5;entryY=1;entryDx=0;entryDy=0;entryPerimeter=0;" parent="1" source="17" target="11" edge="1">
                    <mxGeometry width="50" height="50" relative="1" as="geometry">
                        <mxPoint x="445" y="310" as="sourcePoint"/>
                        <mxPoint x="445" y="190" as="targetPoint"/>
                    </mxGeometry>
                </mxCell>
                <mxCell id="43" value="" style="group;fillColor=#d5e8d4;strokeColor=#82b366;" parent="1" vertex="1" connectable="0">
                    <mxGeometry x="85" y="570" width="700" height="290" as="geometry"/>
                </mxCell>
                <mxCell id="26" value="" style="rounded=0;whiteSpace=wrap;html=1;fontSize=18;fillColor=#d5e8d4;strokeColor=#82b366;" parent="43" vertex="1">
                    <mxGeometry width="700" height="290" as="geometry"/>
                </mxCell>
                <mxCell id="27" value="&lt;font style=&quot;font-size: 20px&quot;&gt;&lt;b&gt;topicRegistry&lt;/b&gt;&lt;/font&gt;" style="text;html=1;strokeColor=none;fillColor=none;align=center;verticalAlign=middle;whiteSpace=wrap;rounded=0;fontSize=18;" parent="43" vertex="1">
                    <mxGeometry x="15" y="30" width="145" height="30" as="geometry"/>
                </mxCell>
                <mxCell id="28" value="PartitionTopicInfo" style="rounded=0;whiteSpace=wrap;html=1;fontSize=18;fillColor=#e1d5e7;strokeColor=#9673a6;" parent="43" vertex="1">
                    <mxGeometry x="15" y="216" width="160" height="60" as="geometry"/>
                </mxCell>
                <mxCell id="30" value="key: &lt;b&gt;topic, partition&amp;nbsp; &lt;/b&gt;value:&lt;b&gt; PartitionTopicInfo&lt;/b&gt;" style="text;html=1;strokeColor=none;fillColor=none;align=center;verticalAlign=middle;whiteSpace=wrap;rounded=0;fontSize=18;" parent="43" vertex="1">
                    <mxGeometry x="185" y="35" width="410" height="20" as="geometry"/>
                </mxCell>
                <mxCell id="31" value="PartitionTopicInfo" style="rounded=0;whiteSpace=wrap;html=1;fontSize=18;fillColor=#e1d5e7;strokeColor=#9673a6;" parent="43" vertex="1">
                    <mxGeometry x="15" y="83.5" width="160" height="60" as="geometry"/>
                </mxCell>
                <mxCell id="33" value="PartitionTopicInfo" style="rounded=0;whiteSpace=wrap;html=1;fontSize=18;fillColor=#e1d5e7;strokeColor=#9673a6;" parent="43" vertex="1">
                    <mxGeometry x="15" y="150.5" width="160" height="60" as="geometry"/>
                </mxCell>
                <mxCell id="34" value="PartitionTopicInfo" style="rounded=0;whiteSpace=wrap;html=1;fontSize=18;fillColor=#e1d5e7;strokeColor=#9673a6;" parent="43" vertex="1">
                    <mxGeometry x="185" y="216" width="160" height="60" as="geometry"/>
                </mxCell>
                <mxCell id="35" value="PartitionTopicInfo" style="rounded=0;whiteSpace=wrap;html=1;fontSize=18;fillColor=#e1d5e7;strokeColor=#9673a6;" parent="43" vertex="1">
                    <mxGeometry x="185" y="83.5" width="160" height="60" as="geometry"/>
                </mxCell>
                <mxCell id="36" value="PartitionTopicInfo" style="rounded=0;whiteSpace=wrap;html=1;fontSize=18;fillColor=#e1d5e7;strokeColor=#9673a6;" parent="43" vertex="1">
                    <mxGeometry x="185" y="150.5" width="160" height="60" as="geometry"/>
                </mxCell>
                <mxCell id="37" value="PartitionTopicInfo" style="rounded=0;whiteSpace=wrap;html=1;fontSize=18;fillColor=#e1d5e7;strokeColor=#9673a6;" parent="43" vertex="1">
                    <mxGeometry x="355" y="216" width="160" height="60" as="geometry"/>
                </mxCell>
                <mxCell id="38" value="PartitionTopicInfo" style="rounded=0;whiteSpace=wrap;html=1;fontSize=18;fillColor=#e1d5e7;strokeColor=#9673a6;" parent="43" vertex="1">
                    <mxGeometry x="355" y="83.5" width="160" height="60" as="geometry"/>
                </mxCell>
                <mxCell id="39" value="PartitionTopicInfo" style="rounded=0;whiteSpace=wrap;html=1;fontSize=18;fillColor=#e1d5e7;strokeColor=#9673a6;" parent="43" vertex="1">
                    <mxGeometry x="355" y="150.5" width="160" height="60" as="geometry"/>
                </mxCell>
                <mxCell id="40" value="PartitionTopicInfo" style="rounded=0;whiteSpace=wrap;html=1;fontSize=18;fillColor=#e1d5e7;strokeColor=#9673a6;" parent="43" vertex="1">
                    <mxGeometry x="525" y="216" width="160" height="60" as="geometry"/>
                </mxCell>
                <mxCell id="41" value="PartitionTopicInfo" style="rounded=0;whiteSpace=wrap;html=1;fontSize=18;fillColor=#e1d5e7;strokeColor=#9673a6;" parent="43" vertex="1">
                    <mxGeometry x="525" y="83.5" width="160" height="60" as="geometry"/>
                </mxCell>
                <mxCell id="42" value="PartitionTopicInfo" style="rounded=0;whiteSpace=wrap;html=1;fontSize=18;fillColor=#e1d5e7;strokeColor=#9673a6;" parent="43" vertex="1">
                    <mxGeometry x="525" y="150.5" width="160" height="60" as="geometry"/>
                </mxCell>
                <mxCell id="49" value="" style="endArrow=classic;html=1;dashed=1;strokeWidth=2;fontSize=18;exitX=0.5;exitY=1;exitDx=0;exitDy=0;entryX=0.175;entryY=-0.006;entryDx=0;entryDy=0;entryPerimeter=0;" parent="1" edge="1">
                    <mxGeometry width="50" height="50" relative="1" as="geometry">
                        <mxPoint x="663.75" y="370" as="sourcePoint"/>
                        <mxPoint x="666.25" y="568.26" as="targetPoint"/>
                    </mxGeometry>
                </mxCell>
                <mxCell id="50" value="FetchedDataChunk" style="edgeLabel;html=1;align=center;verticalAlign=middle;resizable=0;points=[];fontSize=18;" parent="49" vertex="1" connectable="0">
                    <mxGeometry x="0.039" relative="1" as="geometry">
                        <mxPoint x="-0.05" y="27.01" as="offset"/>
                    </mxGeometry>
                </mxCell>
                <mxCell id="51" value="" style="endArrow=classic;html=1;dashed=1;strokeWidth=2;fontSize=18;exitX=0.5;exitY=1;exitDx=0;exitDy=0;entryX=0.175;entryY=-0.006;entryDx=0;entryDy=0;entryPerimeter=0;" parent="1" edge="1">
                    <mxGeometry width="50" height="50" relative="1" as="geometry">
                        <mxPoint x="433.75" y="371.74" as="sourcePoint"/>
                        <mxPoint x="436.25" y="570" as="targetPoint"/>
                    </mxGeometry>
                </mxCell>
                <mxCell id="52" value="FetchedDataChunk" style="edgeLabel;html=1;align=center;verticalAlign=middle;resizable=0;points=[];fontSize=18;" parent="51" vertex="1" connectable="0">
                    <mxGeometry x="0.039" relative="1" as="geometry">
                        <mxPoint x="-0.05" y="27.01" as="offset"/>
                    </mxGeometry>
                </mxCell>
                <mxCell id="53" value="" style="endArrow=classic;html=1;dashed=1;strokeWidth=2;fontSize=18;exitX=0.5;exitY=1;exitDx=0;exitDy=0;entryX=0.175;entryY=-0.006;entryDx=0;entryDy=0;entryPerimeter=0;" parent="1" edge="1">
                    <mxGeometry width="50" height="50" relative="1" as="geometry">
                        <mxPoint x="203.75" y="371.74" as="sourcePoint"/>
                        <mxPoint x="206.25" y="570" as="targetPoint"/>
                    </mxGeometry>
                </mxCell>
                <mxCell id="54" value="FetchedDataChunk" style="edgeLabel;html=1;align=center;verticalAlign=middle;resizable=0;points=[];fontSize=18;" parent="53" vertex="1" connectable="0">
                    <mxGeometry x="0.039" relative="1" as="geometry">
                        <mxPoint x="-0.05" y="27.01" as="offset"/>
                    </mxGeometry>
                </mxCell>
                <mxCell id="66" value="" style="group" parent="1" vertex="1" connectable="0">
                    <mxGeometry x="40" y="910" width="735" height="330" as="geometry"/>
                </mxCell>
                <mxCell id="4" value="" style="rounded=0;whiteSpace=wrap;html=1;fontSize=15;fillColor=#f8cecc;strokeColor=#b85450;" parent="66" vertex="1">
                    <mxGeometry width="380" height="280" as="geometry"/>
                </mxCell>
                <mxCell id="24" value="&lt;font style=&quot;font-size: 20px&quot;&gt;&lt;b&gt;Topic1&lt;/b&gt;&lt;/font&gt;" style="text;html=1;strokeColor=none;fillColor=none;align=center;verticalAlign=middle;whiteSpace=wrap;rounded=0;fontSize=18;" parent="66" vertex="1">
                    <mxGeometry x="10" y="230" width="80" height="30" as="geometry"/>
                </mxCell>
                <mxCell id="56" value="" style="group" parent="66" vertex="1" connectable="0">
                    <mxGeometry x="25" y="20" width="335" height="240" as="geometry"/>
                </mxCell>
                <mxCell id="6" value="" style="rounded=1;whiteSpace=wrap;html=1;fontSize=15;" parent="56" vertex="1">
                    <mxGeometry width="240" height="140" as="geometry"/>
                </mxCell>
                <mxCell id="7" value="BlockingQueue" style="shape=process;whiteSpace=wrap;html=1;backgroundOutline=1;fontSize=17;" parent="56" vertex="1">
                    <mxGeometry x="28.120000000000005" y="60" width="183.75" height="60" as="geometry"/>
                </mxCell>
                <mxCell id="55" value="&lt;font style=&quot;font-size: 20px&quot;&gt;&lt;b&gt;KafkaStream&lt;/b&gt;&lt;/font&gt;" style="text;html=1;strokeColor=none;fillColor=none;align=center;verticalAlign=middle;whiteSpace=wrap;rounded=0;fontSize=18;" parent="56" vertex="1">
                    <mxGeometry x="55" y="20" width="130" height="30" as="geometry"/>
                </mxCell>
                <mxCell id="57" value="" style="group" parent="56" vertex="1" connectable="0">
                    <mxGeometry x="45" y="50" width="290" height="190" as="geometry"/>
                </mxCell>
                <mxCell id="58" value="" style="rounded=1;whiteSpace=wrap;html=1;fontSize=15;" parent="57" vertex="1">
                    <mxGeometry width="240" height="140" as="geometry"/>
                </mxCell>
                <mxCell id="59" value="BlockingQueue" style="shape=process;whiteSpace=wrap;html=1;backgroundOutline=1;fontSize=17;" parent="57" vertex="1">
                    <mxGeometry x="28.120000000000005" y="60" width="183.75" height="60" as="geometry"/>
                </mxCell>
                <mxCell id="60" value="&lt;font style=&quot;font-size: 20px&quot;&gt;&lt;b&gt;KafkaStream&lt;/b&gt;&lt;/font&gt;" style="text;html=1;strokeColor=none;fillColor=none;align=center;verticalAlign=middle;whiteSpace=wrap;rounded=0;fontSize=18;" parent="57" vertex="1">
                    <mxGeometry x="55" y="20" width="130" height="30" as="geometry"/>
                </mxCell>
                <mxCell id="61" value="" style="group" parent="57" vertex="1" connectable="0">
                    <mxGeometry x="45" y="50" width="240" height="140" as="geometry"/>
                </mxCell>
                <mxCell id="62" value="" style="rounded=1;whiteSpace=wrap;html=1;fontSize=15;" parent="61" vertex="1">
                    <mxGeometry width="240" height="140" as="geometry"/>
                </mxCell>
                <mxCell id="63" value="BlockingQueue" style="shape=process;whiteSpace=wrap;html=1;backgroundOutline=1;fontSize=17;" parent="61" vertex="1">
                    <mxGeometry x="28.120000000000005" y="60" width="183.75" height="60" as="geometry"/>
                </mxCell>
                <mxCell id="64" value="&lt;font style=&quot;font-size: 20px&quot;&gt;&lt;b&gt;KafkaStream&lt;/b&gt;&lt;/font&gt;" style="text;html=1;strokeColor=none;fillColor=none;align=center;verticalAlign=middle;whiteSpace=wrap;rounded=0;fontSize=18;" parent="61" vertex="1">
                    <mxGeometry x="55" y="20" width="130" height="30" as="geometry"/>
                </mxCell>
                <mxCell id="67" value="" style="group;labelBackgroundColor=#F8CECC;" parent="1" vertex="1" connectable="0">
                    <mxGeometry x="460" y="910" width="405" height="300" as="geometry"/>
                </mxCell>
                <mxCell id="68" value="" style="rounded=0;whiteSpace=wrap;html=1;fontSize=15;labelBackgroundColor=#F8CECC;fillColor=#f8cecc;strokeColor=#b85450;" parent="67" vertex="1">
                    <mxGeometry width="380" height="280" as="geometry"/>
                </mxCell>
                <mxCell id="69" value="&lt;font style=&quot;font-size: 20px&quot;&gt;&lt;b&gt;Topic2&lt;/b&gt;&lt;/font&gt;" style="text;html=1;strokeColor=none;fillColor=none;align=center;verticalAlign=middle;whiteSpace=wrap;rounded=0;fontSize=18;" parent="67" vertex="1">
                    <mxGeometry x="10" y="230" width="80" height="30" as="geometry"/>
                </mxCell>
                <mxCell id="70" value="" style="group" parent="67" vertex="1" connectable="0">
                    <mxGeometry x="25" y="20" width="380" height="280" as="geometry"/>
                </mxCell>
                <mxCell id="71" value="" style="rounded=1;whiteSpace=wrap;html=1;fontSize=15;" parent="70" vertex="1">
                    <mxGeometry width="240" height="140" as="geometry"/>
                </mxCell>
                <mxCell id="72" value="BlockingQueue" style="shape=process;whiteSpace=wrap;html=1;backgroundOutline=1;fontSize=17;" parent="70" vertex="1">
                    <mxGeometry x="28.120000000000005" y="60" width="183.75" height="60" as="geometry"/>
                </mxCell>
                <mxCell id="73" value="&lt;font style=&quot;font-size: 20px&quot;&gt;&lt;b&gt;KafkaStream&lt;/b&gt;&lt;/font&gt;" style="text;html=1;strokeColor=none;fillColor=none;align=center;verticalAlign=middle;whiteSpace=wrap;rounded=0;fontSize=18;" parent="70" vertex="1">
                    <mxGeometry x="55" y="20" width="130" height="30" as="geometry"/>
                </mxCell>
                <mxCell id="74" value="" style="group" parent="70" vertex="1" connectable="0">
                    <mxGeometry x="45" y="50" width="290" height="190" as="geometry"/>
                </mxCell>
                <mxCell id="75" value="" style="rounded=1;whiteSpace=wrap;html=1;fontSize=15;" parent="74" vertex="1">
                    <mxGeometry width="240" height="140" as="geometry"/>
                </mxCell>
                <mxCell id="76" value="BlockingQueue" style="shape=process;whiteSpace=wrap;html=1;backgroundOutline=1;fontSize=17;" parent="74" vertex="1">
                    <mxGeometry x="28.120000000000005" y="60" width="183.75" height="60" as="geometry"/>
                </mxCell>
                <mxCell id="77" value="&lt;font style=&quot;font-size: 20px&quot;&gt;&lt;b&gt;KafkaStream&lt;/b&gt;&lt;/font&gt;" style="text;html=1;strokeColor=none;fillColor=none;align=center;verticalAlign=middle;whiteSpace=wrap;rounded=0;fontSize=18;" parent="74" vertex="1">
                    <mxGeometry x="55" y="20" width="130" height="30" as="geometry"/>
                </mxCell>
                <mxCell id="78" value="" style="group" parent="74" vertex="1" connectable="0">
                    <mxGeometry x="45" y="50" width="240" height="140" as="geometry"/>
                </mxCell>
                <mxCell id="79" value="" style="rounded=1;whiteSpace=wrap;html=1;fontSize=15;" parent="78" vertex="1">
                    <mxGeometry width="240" height="140" as="geometry"/>
                </mxCell>
                <mxCell id="80" value="BlockingQueue" style="shape=process;whiteSpace=wrap;html=1;backgroundOutline=1;fontSize=17;" parent="78" vertex="1">
                    <mxGeometry x="28.120000000000005" y="60" width="183.75" height="60" as="geometry"/>
                </mxCell>
                <mxCell id="81" value="&lt;font style=&quot;font-size: 20px&quot;&gt;&lt;b&gt;KafkaStream&lt;/b&gt;&lt;/font&gt;" style="text;html=1;strokeColor=none;fillColor=none;align=center;verticalAlign=middle;whiteSpace=wrap;rounded=0;fontSize=18;" parent="78" vertex="1">
                    <mxGeometry x="55" y="20" width="130" height="30" as="geometry"/>
                </mxCell>
                <mxCell id="82" value="" style="endArrow=none;dashed=1;html=1;strokeWidth=2;fontSize=17;entryX=0.5;entryY=1;entryDx=0;entryDy=0;exitX=0.5;exitY=0;exitDx=0;exitDy=0;dashPattern=1 1;" parent="1" source="6" target="28" edge="1">
                    <mxGeometry width="50" height="50" relative="1" as="geometry">
                        <mxPoint x="180" y="930" as="sourcePoint"/>
                        <mxPoint x="450" y="780" as="targetPoint"/>
                    </mxGeometry>
                </mxCell>
                <mxCell id="84" value="" style="endArrow=none;dashed=1;html=1;strokeWidth=2;fontSize=17;entryX=0.5;entryY=1;entryDx=0;entryDy=0;exitX=0.5;exitY=0;exitDx=0;exitDy=0;dashPattern=1 1;" parent="1" source="58" target="36" edge="1">
                    <mxGeometry width="50" height="50" relative="1" as="geometry">
                        <mxPoint x="190" y="940" as="sourcePoint"/>
                        <mxPoint x="190" y="856" as="targetPoint"/>
                    </mxGeometry>
                </mxCell>
                <mxCell id="86" value="" style="endArrow=none;dashed=1;html=1;strokeWidth=2;fontSize=17;entryX=0.5;entryY=1;entryDx=0;entryDy=0;exitX=0.75;exitY=0;exitDx=0;exitDy=0;dashPattern=1 1;" parent="1" source="63" target="34" edge="1">
                    <mxGeometry width="50" height="50" relative="1" as="geometry">
                        <mxPoint x="400" y="830" as="sourcePoint"/>
                        <mxPoint x="450" y="780" as="targetPoint"/>
                    </mxGeometry>
                </mxCell>
                <mxCell id="87" value="" style="endArrow=none;dashed=1;html=1;strokeWidth=2;fontSize=17;entryX=0.5;entryY=1;entryDx=0;entryDy=0;exitX=0.5;exitY=0;exitDx=0;exitDy=0;dashPattern=1 1;" parent="1" source="71" target="39" edge="1">
                    <mxGeometry width="50" height="50" relative="1" as="geometry">
                        <mxPoint x="284.9949999999999" y="1100" as="sourcePoint"/>
                        <mxPoint x="360" y="856" as="targetPoint"/>
                    </mxGeometry>
                </mxCell>
                <mxCell id="88" value="" style="endArrow=none;dashed=1;html=1;strokeWidth=2;fontSize=17;entryX=0.5;entryY=1;entryDx=0;entryDy=0;exitX=0.5;exitY=0;exitDx=0;exitDy=0;dashPattern=1 1;" parent="1" source="75" target="40" edge="1">
                    <mxGeometry width="50" height="50" relative="1" as="geometry">
                        <mxPoint x="615" y="940" as="sourcePoint"/>
                        <mxPoint x="530" y="790.5" as="targetPoint"/>
                    </mxGeometry>
                </mxCell>
                <mxCell id="89" value="" style="endArrow=none;dashed=1;html=1;strokeWidth=2;fontSize=17;entryX=0.5;entryY=1;entryDx=0;entryDy=0;exitX=0.25;exitY=0;exitDx=0;exitDy=0;dashPattern=1 1;" parent="1" source="80" target="37" edge="1">
                    <mxGeometry width="50" height="50" relative="1" as="geometry">
                        <mxPoint x="660" y="990" as="sourcePoint"/>
                        <mxPoint x="700" y="856" as="targetPoint"/>
                    </mxGeometry>
                </mxCell>
                <mxCell id="25" value="&lt;font style=&quot;font-size: 20px&quot;&gt;&lt;b&gt;ConsumerFetcherManager&lt;/b&gt;&lt;/font&gt;" style="text;html=1;strokeColor=none;fillColor=none;align=center;verticalAlign=middle;whiteSpace=wrap;rounded=0;fontSize=18;labelBackgroundColor=#F8CECC;" parent="1" vertex="1">
                    <mxGeometry x="295" y="390" width="270" height="30" as="geometry"/>
                </mxCell>
                <mxCell id="93" value="&lt;div style=&quot;font-family: &amp;#34;menlo&amp;#34; , &amp;#34;monaco&amp;#34; , &amp;#34;courier new&amp;#34; , monospace ; font-size: 16px ; line-height: 33px&quot;&gt;&lt;span style=&quot;color: rgb(211 , 54 , 130) ; font-weight: bold ; font-size: 16px&quot;&gt;/brokers/ids&lt;/span&gt;&lt;span style=&quot;font-size: 16px&quot;&gt;(watching)&lt;/span&gt;&lt;br style=&quot;font-size: 16px&quot;&gt;&lt;/div&gt;&lt;div style=&quot;font-family: &amp;#34;menlo&amp;#34; , &amp;#34;monaco&amp;#34; , &amp;#34;courier new&amp;#34; , monospace ; font-size: 16px ; line-height: 33px&quot;&gt;&lt;div style=&quot;line-height: 33px ; font-size: 16px&quot;&gt;&lt;div style=&quot;line-height: 33px ; font-size: 16px&quot;&gt;&lt;span style=&quot;color: rgb(211 , 54 , 130) ; font-weight: 700 ; font-size: 16px&quot;&gt;/brokers/topics/$TOPIC&lt;/span&gt;&lt;span style=&quot;font-size: 16px&quot;&gt;(watching)&lt;/span&gt;&lt;span style=&quot;color: rgb(211 , 54 , 130) ; font-weight: bold ; font-size: 16px&quot;&gt;&lt;br style=&quot;font-size: 16px&quot;&gt;&lt;/span&gt;&lt;/div&gt;&lt;span style=&quot;color: rgb(211 , 54 , 130) ; font-weight: 700 ; font-size: 16px&quot;&gt;/consumers/$GROUP/ids/$CONSUMER_ID_STRING&lt;/span&gt;&lt;span style=&quot;font-size: 16px&quot;&gt;(watching)&lt;/span&gt;&lt;div style=&quot;color: rgb(51 , 51 , 51) ; line-height: 33px ; font-size: 16px&quot;&gt;&lt;div style=&quot;line-height: 33px ; font-size: 16px&quot;&gt;&lt;span style=&quot;color: rgb(211 , 54 , 130) ; font-weight: bold ; font-size: 16px&quot;&gt;/consumers/$GROUP/owners/$TOPIC/$PARTITION&lt;/span&gt;&lt;/div&gt;&lt;div style=&quot;line-height: 33px ; font-size: 16px&quot;&gt;&lt;div style=&quot;line-height: 33px ; font-size: 16px&quot;&gt;&lt;div style=&quot;line-height: 33px ; font-size: 16px&quot;&gt;&lt;span style=&quot;color: rgb(211 , 54 , 130) ; font-weight: bold ; font-size: 16px&quot;&gt;/consumers/$GROUP/offsets/$TOPIC/$PARTITION&lt;/span&gt;&lt;/div&gt;&lt;/div&gt;&lt;/div&gt;&lt;/div&gt;&lt;/div&gt;&lt;/div&gt;" style="text;html=1;strokeColor=none;fillColor=none;align=center;verticalAlign=top;whiteSpace=wrap;rounded=0;labelBackgroundColor=#FFFFFF;fontSize=16;" parent="1" vertex="1">
                    <mxGeometry x="-680" y="180" width="520" height="170" as="geometry"/>
                </mxCell>
                <mxCell id="90" value="&lt;span&gt;Zookeeper&lt;/span&gt;" style="ellipse;shape=cloud;whiteSpace=wrap;html=1;labelBackgroundColor=none;fontSize=23;fillColor=#e1d5e7;strokeColor=#9673a6;fontStyle=1;" parent="1" vertex="1">
                    <mxGeometry x="-630" y="340" width="410" height="160" as="geometry"/>
                </mxCell>
                <mxCell id="98" value="" style="endArrow=none;dashed=1;html=1;strokeWidth=2;fontSize=22;entryX=0.55;entryY=0.95;entryDx=0;entryDy=0;entryPerimeter=0;exitX=0.5;exitY=0;exitDx=0;exitDy=0;" parent="1" source="95" target="90" edge="1">
                    <mxGeometry width="50" height="50" relative="1" as="geometry">
                        <mxPoint x="-170" y="910" as="sourcePoint"/>
                        <mxPoint x="-140" y="520" as="targetPoint"/>
                    </mxGeometry>
                </mxCell>
                <mxCell id="113" value="watching" style="edgeLabel;html=1;align=center;verticalAlign=middle;resizable=0;points=[];fontSize=21;" parent="98" vertex="1" connectable="0">
                    <mxGeometry x="0.3694" relative="1" as="geometry">
                        <mxPoint x="-0.34" y="15.67" as="offset"/>
                    </mxGeometry>
                </mxCell>
                <mxCell id="99" value="" style="group;fillColor=#dae8fc;strokeColor=#6c8ebf;" parent="1" vertex="1" connectable="0">
                    <mxGeometry x="-570" y="625" width="330" height="180" as="geometry"/>
                </mxCell>
                <mxCell id="95" value="" style="rounded=0;whiteSpace=wrap;html=1;labelBackgroundColor=#FFFFFF;fontSize=22;align=center;fillColor=#dae8fc;strokeColor=#6c8ebf;" parent="99" vertex="1">
                    <mxGeometry width="330" height="180" as="geometry"/>
                </mxCell>
                <mxCell id="96" value="PartitionAssignor" style="rounded=1;whiteSpace=wrap;html=1;labelBackgroundColor=#FFFFFF;fontSize=22;align=center;" parent="99" vertex="1">
                    <mxGeometry x="68" y="80" width="195" height="70" as="geometry"/>
                </mxCell>
                <mxCell id="97" value="&lt;meta charset=&quot;utf-8&quot;&gt;&lt;span style=&quot;color: rgb(0, 0, 0); font-family: helvetica; font-size: 22px; font-style: normal; letter-spacing: normal; text-align: center; text-indent: 0px; text-transform: none; word-spacing: 0px; display: inline; float: none;&quot;&gt;ZKRebalancerListener&lt;/span&gt;" style="text;html=1;strokeColor=none;fillColor=none;align=center;verticalAlign=middle;whiteSpace=wrap;rounded=0;labelBackgroundColor=none;fontSize=22;fontStyle=1" parent="99" vertex="1">
                    <mxGeometry x="45" y="30" width="240" height="20" as="geometry"/>
                </mxCell>
                <mxCell id="101" value="ConsumerMetadata&lt;br&gt;Offset&lt;br&gt;OffsetFetch&lt;br&gt;Fetch&lt;br&gt;OffsetCommit" style="text;html=1;strokeColor=none;fillColor=none;align=center;verticalAlign=middle;whiteSpace=wrap;rounded=0;labelBackgroundColor=#ffffff;fontSize=22;spacing=4;sketch=0;" parent="1" vertex="1">
                    <mxGeometry x="340" y="90" width="190" height="110" as="geometry"/>
                </mxCell>
                <mxCell id="103" value="&lt;p style=&quot;line-height: 120% ; font-size: 21px&quot;&gt;&lt;/p&gt;&lt;h1 style=&quot;font-size: 21px&quot;&gt;&lt;span style=&quot;font-size: 21px ; font-weight: normal&quot;&gt;ConsumerMetadata：消费者组消费位移分区所在的Broker&lt;/span&gt;&lt;/h1&gt;&lt;h1 style=&quot;font-size: 21px&quot;&gt;&lt;span style=&quot;font-size: 21px ; font-weight: normal&quot;&gt;OffsetFetch：消费者组对应分区的消费位移&lt;/span&gt;&lt;/h1&gt;&lt;h1 style=&quot;font-size: 21px&quot;&gt;&lt;span style=&quot;font-size: 21px ; font-weight: normal&quot;&gt;Offset：获取基于某个时间点某个分区的位移&lt;/span&gt;&lt;/h1&gt;OffsetCommit：提交消费位移到OffsetManager&lt;h1 style=&quot;font-size: 21px&quot;&gt;&lt;span style=&quot;font-size: 21px ; font-weight: normal&quot;&gt;Fetch：获取分区数据&lt;/span&gt;&lt;/h1&gt;&lt;p style=&quot;font-size: 21px&quot;&gt;&lt;/p&gt;" style="text;html=1;strokeColor=none;fillColor=none;align=left;verticalAlign=middle;whiteSpace=wrap;rounded=0;labelBackgroundColor=#FFFFFF;fontSize=21;fontStyle=0" parent="1" vertex="1">
                    <mxGeometry x="-620" y="-100" width="760" height="230" as="geometry"/>
                </mxCell>
                <mxCell id="104" value="" style="shape=flexArrow;endArrow=classic;html=1;strokeWidth=2;fontSize=21;exitX=1;exitY=0.5;exitDx=0;exitDy=0;entryX=0;entryY=0.5;entryDx=0;entryDy=0;sketch=0;" parent="1" source="95" target="26" edge="1">
                    <mxGeometry width="50" height="50" relative="1" as="geometry">
                        <mxPoint x="10" y="460" as="sourcePoint"/>
                        <mxPoint x="60" y="410" as="targetPoint"/>
                    </mxGeometry>
                </mxCell>
                <mxCell id="114" value="rebalance" style="edgeLabel;html=1;align=center;verticalAlign=middle;resizable=0;points=[];fontSize=21;labelBackgroundColor=none;" parent="104" vertex="1" connectable="0">
                    <mxGeometry x="-0.1339" y="11" relative="1" as="geometry">
                        <mxPoint x="8.67" y="-14" as="offset"/>
                    </mxGeometry>
                </mxCell>
                <mxCell id="105" value="" style="endArrow=none;dashed=1;html=1;strokeWidth=2;fontSize=17;entryX=0.5;entryY=1;entryDx=0;entryDy=0;exitX=0.25;exitY=0;exitDx=0;exitDy=0;dashPattern=1 1;" parent="1" source="6" target="31" edge="1">
                    <mxGeometry width="50" height="50" relative="1" as="geometry">
                        <mxPoint x="195" y="940" as="sourcePoint"/>
                        <mxPoint x="190" y="856" as="targetPoint"/>
                    </mxGeometry>
                </mxCell>
                <mxCell id="106" value="" style="endArrow=none;html=1;strokeWidth=2;fontSize=17;exitX=0.5;exitY=0;exitDx=0;exitDy=0;entryX=0.5;entryY=1;entryDx=0;entryDy=0;dashed=1;dashPattern=1 1;" parent="1" source="63" target="35" edge="1">
                    <mxGeometry width="50" height="50" relative="1" as="geometry">
                        <mxPoint x="135" y="940" as="sourcePoint"/>
                        <mxPoint x="360" y="710" as="targetPoint"/>
                    </mxGeometry>
                </mxCell>
                <mxCell id="107" value="" style="endArrow=none;dashed=1;html=1;strokeWidth=2;fontSize=17;entryX=0.5;entryY=1;entryDx=0;entryDy=0;exitX=0.75;exitY=1;exitDx=0;exitDy=0;dashPattern=1 1;" parent="1" source="55" target="33" edge="1">
                    <mxGeometry width="50" height="50" relative="1" as="geometry">
                        <mxPoint x="135" y="940" as="sourcePoint"/>
                        <mxPoint x="190" y="723.5" as="targetPoint"/>
                    </mxGeometry>
                </mxCell>
                <mxCell id="108" value="" style="endArrow=none;dashed=1;html=1;strokeWidth=2;fontSize=17;entryX=0.5;entryY=1;entryDx=0;entryDy=0;exitX=0.5;exitY=0;exitDx=0;exitDy=0;dashPattern=1 1;" parent="1" source="71" target="38" edge="1">
                    <mxGeometry width="50" height="50" relative="1" as="geometry">
                        <mxPoint x="615" y="940" as="sourcePoint"/>
                        <mxPoint x="530" y="790.5" as="targetPoint"/>
                    </mxGeometry>
                </mxCell>
                <mxCell id="109" value="" style="endArrow=none;dashed=1;html=1;strokeWidth=2;fontSize=17;entryX=0.5;entryY=1;entryDx=0;entryDy=0;dashPattern=1 1;" parent="1" target="42" edge="1">
                    <mxGeometry width="50" height="50" relative="1" as="geometry">
                        <mxPoint x="650" y="980" as="sourcePoint"/>
                        <mxPoint x="700" y="856" as="targetPoint"/>
                    </mxGeometry>
                </mxCell>
                <mxCell id="110" value="" style="endArrow=none;dashed=1;html=1;strokeWidth=2;fontSize=17;entryX=0.5;entryY=1;entryDx=0;entryDy=0;exitX=0.75;exitY=0;exitDx=0;exitDy=0;dashPattern=1 1;" parent="1" source="80" target="41" edge="1">
                    <mxGeometry width="50" height="50" relative="1" as="geometry">
                        <mxPoint x="660" y="990" as="sourcePoint"/>
                        <mxPoint x="700" y="790.5" as="targetPoint"/>
                    </mxGeometry>
                </mxCell>
                <mxCell id="115" value="&lt;p style=&quot;line-height: 120% ; font-size: 21px&quot;&gt;&lt;/p&gt;&lt;h1 style=&quot;font-size: 21px&quot;&gt;&lt;span style=&quot;font-weight: 400&quot;&gt;再平衡包括两方面工作：&lt;/span&gt;&lt;/h1&gt;&lt;div&gt;&lt;span style=&quot;font-weight: 400&quot;&gt;1、清除队列并重设topicRegistry&lt;/span&gt;&lt;/div&gt;&lt;div&gt;&lt;span style=&quot;font-weight: 400&quot;&gt;2、重启所有ConsumerFetcherThread&lt;/span&gt;&lt;/div&gt;&lt;p style=&quot;font-size: 21px&quot;&gt;&lt;/p&gt;" style="text;html=1;strokeColor=none;fillColor=none;align=left;verticalAlign=middle;whiteSpace=wrap;rounded=0;labelBackgroundColor=#FFFFFF;fontSize=21;fontStyle=0" parent="1" vertex="1">
                    <mxGeometry x="-570" y="770" width="490" height="230" as="geometry"/>
                </mxCell>
                <mxCell id="126" value="" style="group;fillColor=#fff2cc;strokeColor=#d6b656;" parent="1" vertex="1" connectable="0">
                    <mxGeometry x="1070" y="510" width="287.5" height="410" as="geometry"/>
                </mxCell>
                <mxCell id="117" value="" style="rounded=0;whiteSpace=wrap;html=1;labelBackgroundColor=none;sketch=0;fontSize=21;align=center;fillColor=#e1d5e7;strokeColor=#9673a6;" parent="126" vertex="1">
                    <mxGeometry width="287.5" height="410" as="geometry"/>
                </mxCell>
                <mxCell id="118" value="fetchedOffset" style="rounded=0;whiteSpace=wrap;html=1;labelBackgroundColor=none;sketch=0;fontSize=21;align=center;fillColor=#fff2cc;strokeColor=#d6b656;" parent="126" vertex="1">
                    <mxGeometry x="23.75" y="235" width="240" height="50" as="geometry"/>
                </mxCell>
                <mxCell id="119" value="&lt;span&gt;consumedOffset&lt;/span&gt;" style="rounded=0;whiteSpace=wrap;html=1;labelBackgroundColor=none;sketch=0;fontSize=21;align=center;fillColor=#fff2cc;strokeColor=#d6b656;" parent="126" vertex="1">
                    <mxGeometry x="23.75" y="285" width="240" height="50" as="geometry"/>
                </mxCell>
                <mxCell id="120" value="partition" style="rounded=0;whiteSpace=wrap;html=1;labelBackgroundColor=none;sketch=0;fontSize=21;align=center;fillColor=#d5e8d4;strokeColor=#82b366;" parent="126" vertex="1">
                    <mxGeometry x="23.75" y="135" width="240" height="50" as="geometry"/>
                </mxCell>
                <mxCell id="121" value="topic" style="rounded=0;whiteSpace=wrap;html=1;labelBackgroundColor=none;sketch=0;fontSize=21;align=center;fillColor=#d5e8d4;strokeColor=#82b366;" parent="126" vertex="1">
                    <mxGeometry x="23.75" y="85" width="240" height="50" as="geometry"/>
                </mxCell>
                <mxCell id="122" value="clientId" style="rounded=0;whiteSpace=wrap;html=1;labelBackgroundColor=none;sketch=0;fontSize=21;align=center;fillColor=#d5e8d4;strokeColor=#82b366;" parent="126" vertex="1">
                    <mxGeometry x="23.75" y="185" width="240" height="50" as="geometry"/>
                </mxCell>
                <mxCell id="123" value="blockingQueue" style="rounded=0;whiteSpace=wrap;html=1;labelBackgroundColor=none;sketch=0;fontSize=21;align=center;fillColor=#f8cecc;strokeColor=#b85450;" parent="126" vertex="1">
                    <mxGeometry x="23.75" y="335" width="240" height="50" as="geometry"/>
                </mxCell>
                <mxCell id="124" value="PartitionTopicInfo" style="text;html=1;strokeColor=none;fillColor=none;align=center;verticalAlign=middle;whiteSpace=wrap;rounded=0;labelBackgroundColor=none;sketch=0;fontSize=25;fontStyle=1" parent="126" vertex="1">
                    <mxGeometry x="53.75" y="29" width="180" height="30" as="geometry"/>
                </mxCell>
                <mxCell id="131" value="" style="endArrow=classic;html=1;dashed=1;dashPattern=1 1;strokeWidth=2;fontSize=25;exitX=1;exitY=0.5;exitDx=0;exitDy=0;" parent="126" source="123" edge="1">
                    <mxGeometry width="50" height="50" relative="1" as="geometry">
                        <mxPoint x="263.75" y="359.33000000000004" as="sourcePoint"/>
                        <mxPoint x="430" y="359" as="targetPoint"/>
                        <Array as="points">
                            <mxPoint x="360" y="359"/>
                        </Array>
                    </mxGeometry>
                </mxCell>
                <mxCell id="133" value="consume" style="edgeLabel;html=1;align=center;verticalAlign=middle;resizable=0;points=[];fontSize=18;labelBackgroundColor=none;" parent="131" vertex="1" connectable="0">
                    <mxGeometry x="-0.1124" y="-2" relative="1" as="geometry">
                        <mxPoint x="12.9" y="11.76" as="offset"/>
                    </mxGeometry>
                </mxCell>
                <mxCell id="135" value="" style="rounded=0;whiteSpace=wrap;html=1;labelBackgroundColor=none;sketch=0;fontSize=18;align=center;fillColor=#f8cecc;strokeColor=#b85450;" parent="126" vertex="1">
                    <mxGeometry x="243.75" y="335" width="20" height="50" as="geometry"/>
                </mxCell>
                <mxCell id="134" value="" style="rounded=0;whiteSpace=wrap;html=1;labelBackgroundColor=none;sketch=0;fontSize=18;align=center;fillColor=#f8cecc;strokeColor=#b85450;" parent="126" vertex="1">
                    <mxGeometry x="23.75" y="335" width="20" height="50" as="geometry"/>
                </mxCell>
                <mxCell id="128" value="" style="endArrow=classic;html=1;dashed=1;dashPattern=1 1;strokeWidth=2;fontSize=25;entryX=0;entryY=0.5;entryDx=0;entryDy=0;exitX=1;exitY=0.5;exitDx=0;exitDy=0;" parent="1" source="12" target="118" edge="1">
                    <mxGeometry width="50" height="50" relative="1" as="geometry">
                        <mxPoint x="810" y="680" as="sourcePoint"/>
                        <mxPoint x="860" y="630" as="targetPoint"/>
                        <Array as="points">
                            <mxPoint x="930" y="346"/>
                            <mxPoint x="930" y="770"/>
                        </Array>
                    </mxGeometry>
                </mxCell>
                <mxCell id="137" value="write" style="edgeLabel;html=1;align=center;verticalAlign=middle;resizable=0;points=[];fontSize=18;labelBackgroundColor=none;" parent="128" vertex="1" connectable="0">
                    <mxGeometry x="0.8055" y="2" relative="1" as="geometry">
                        <mxPoint y="-15.5" as="offset"/>
                    </mxGeometry>
                </mxCell>
                <mxCell id="129" value="" style="endArrow=classic;html=1;dashed=1;dashPattern=1 1;strokeWidth=2;fontSize=25;entryX=0;entryY=0.5;entryDx=0;entryDy=0;exitX=1;exitY=0.5;exitDx=0;exitDy=0;" parent="1" source="68" target="119" edge="1">
                    <mxGeometry width="50" height="50" relative="1" as="geometry">
                        <mxPoint x="810" y="950" as="sourcePoint"/>
                        <mxPoint x="860" y="900" as="targetPoint"/>
                        <Array as="points">
                            <mxPoint x="930" y="1050"/>
                            <mxPoint x="930" y="820"/>
                        </Array>
                    </mxGeometry>
                </mxCell>
                <mxCell id="138" value="write" style="edgeLabel;html=1;align=center;verticalAlign=middle;resizable=0;points=[];fontSize=18;labelBackgroundColor=none;" parent="129" vertex="1" connectable="0">
                    <mxGeometry x="0.7219" y="3" relative="1" as="geometry">
                        <mxPoint x="-2" y="-14" as="offset"/>
                    </mxGeometry>
                </mxCell>
                <mxCell id="130" value="" style="endArrow=classic;html=1;dashed=1;dashPattern=1 1;strokeWidth=2;fontSize=25;entryX=0;entryY=0.5;entryDx=0;entryDy=0;" parent="1" target="123" edge="1">
                    <mxGeometry width="50" height="50" relative="1" as="geometry">
                        <mxPoint x="990" y="870" as="sourcePoint"/>
                        <mxPoint x="860" y="860" as="targetPoint"/>
                    </mxGeometry>
                </mxCell>
                <mxCell id="132" value="fetch" style="edgeLabel;html=1;align=center;verticalAlign=middle;resizable=0;points=[];fontSize=18;labelBackgroundColor=none;" parent="130" vertex="1" connectable="0">
                    <mxGeometry x="-0.2198" relative="1" as="geometry">
                        <mxPoint y="14" as="offset"/>
                    </mxGeometry>
                </mxCell>
                <mxCell id="139" value="" style="endArrow=classic;html=1;dashed=1;dashPattern=1 1;strokeWidth=2;fontSize=18;exitX=1;exitY=0.5;exitDx=0;exitDy=0;entryX=1;entryY=0.5;entryDx=0;entryDy=0;entryPerimeter=0;" parent="1" source="119" target="141" edge="1">
                    <mxGeometry width="50" height="50" relative="1" as="geometry">
                        <mxPoint x="920" y="710" as="sourcePoint"/>
                        <mxPoint x="970" y="660" as="targetPoint"/>
                        <Array as="points">
                            <mxPoint x="1500" y="820"/>
                            <mxPoint x="1500" y="-15"/>
                        </Array>
                    </mxGeometry>
                </mxCell>
                <mxCell id="142" value="OffsetCommit&amp;nbsp;" style="edgeLabel;html=1;align=center;verticalAlign=middle;resizable=0;points=[];fontSize=18;horizontal=0;labelBackgroundColor=none;" parent="139" vertex="1" connectable="0">
                    <mxGeometry x="-0.0003" y="-2" relative="1" as="geometry">
                        <mxPoint x="-22" y="4.42" as="offset"/>
                    </mxGeometry>
                </mxCell>
                <mxCell id="141" value="OffsetManager" style="shape=cylinder3;whiteSpace=wrap;html=1;boundedLbl=1;backgroundOutline=1;size=15;fontSize=18;fontStyle=1;fillColor=#dae8fc;strokeColor=#6c8ebf;" parent="1" vertex="1">
                    <mxGeometry x="1130" y="-70" width="150" height="110" as="geometry"/>
                </mxCell>
                <mxCell id="143" value="自动提交线程" style="shape=document;whiteSpace=wrap;html=1;boundedLbl=1;direction=south;spacing=7;spacingRight=20;fillColor=#0050ef;strokeColor=#001DBC;fontColor=#ffffff;fontSize=14;fontStyle=1" vertex="1" parent="1">
                    <mxGeometry x="1462" y="525" width="60" height="120" as="geometry"/>
                </mxCell>
            </root>
        </mxGraphModel>
    </diagram>
</mxfile>